<svg width="22" height="22" viewBox="0 0 22 22" fill="none" xmlns="http://www.w3.org/2000/svg">
<g clip-path="url(#clip0)">
<path d="M11.0001 14.6667C10.8122 14.6667 10.6325 14.5897 10.5033 14.454L5.6908 9.41237C5.27372 8.97604 5.58355 8.25004 6.18763 8.25004H8.70847V2.97921C8.70847 2.34762 9.22272 1.83337 9.8543 1.83337H12.146C12.7775 1.83337 13.2918 2.34762 13.2918 2.97921V8.25004H15.8126C16.4167 8.25004 16.7266 8.97604 16.3095 9.41237L11.497 14.454C11.3677 14.5897 11.188 14.6667 11.0001 14.6667Z" fill="black"/>
<path d="M20.3958 20.1667H1.60417C0.719583 20.1667 0 19.4471 0 18.5625V18.1042C0 17.2196 0.719583 16.5 1.60417 16.5H20.3958C21.2804 16.5 22 17.2196 22 18.1042V18.5625C22 19.4471 21.2804 20.1667 20.3958 20.1667Z" fill="black"/>
</g>
<defs>
<clipPath id="clip0">
<rect width="22" height="22" fill="white"/>
</clipPath>
</defs>
</svg>
