<svg width="28" height="29" viewBox="0 0 28 29" fill="none" xmlns="http://www.w3.org/2000/svg">
<path d="M4.8 6.8C7.3 4.3 10.5 3 14 3V0.5L17 2.5L20 4.5L17 6.5L14 8.5V6C11.3 6 8.8 7 6.9 8.9C5 10.8 4 13.3 4 16C4 18.7 5 21.2 6.9 23.1C8.8 25 11.3 26 14 26C16.7 26 19.2 25 21.1 23.1C23 21.2 24 18.7 24 16C24 13.3 23 10.8 21.1 8.9L23.2 6.8C25.6 9.3 27 12.5 27 16C27 19.5 25.6 22.7 23.2 25.2C20.7 27.7 17.5 29 14 29C10.5 29 7.3 27.6 4.8 25.2C2.3 22.7 1 19.5 1 16C1 12.5 2.4 9.3 4.8 6.8Z" fill="#212124"/>
<path d="M8.40813 14.51H9.51813C9.58813 14 9.95813 13.52 10.7581 13.52C11.5381 13.52 11.9481 13.94 11.9481 14.57C11.9481 15.35 11.3181 15.65 10.2881 15.66H10.0181V16.6H10.2781C11.4681 16.6 12.0881 16.93 12.0881 17.89C12.0881 18.57 11.6681 19.09 10.8181 19.09C9.95813 19.09 9.45813 18.57 9.40813 17.89H8.30813C8.37813 19.32 9.44813 20.04 10.8281 20.04C12.3481 20.04 13.1681 19.16 13.1681 18C13.1681 16.99 12.6781 16.36 11.9181 16.13V16.09C12.4881 15.9 13.0381 15.31 13.0381 14.44C13.0381 13.38 12.2481 12.54 10.7981 12.54C9.46813 12.54 8.48812 13.25 8.40813 14.51ZM14.3656 16.26C14.3656 18.38 14.9256 19.98 16.9656 19.98C19.0056 19.98 19.5656 18.38 19.5656 16.26C19.5656 14.18 19.0056 12.58 16.9656 12.58C14.9256 12.58 14.3656 14.18 14.3656 16.26ZM18.4456 16.26C18.4456 17.69 18.2956 18.94 16.9656 18.94C15.6356 18.94 15.4856 17.69 15.4856 16.26C15.4856 14.9 15.6356 13.62 16.9656 13.62C18.2956 13.62 18.4456 14.9 18.4456 16.26Z" fill="black"/>
</svg>
