<svg width="28" height="28" viewBox="0 0 28 28" fill="none" xmlns="http://www.w3.org/2000/svg">
<path d="M17.9431 12.1292L6.82416 4.48117C6.36729 4.16622 5.89212 4 5.48531 4C4.59215 4 4 4.74914 4 5.95465V22.0356C4 22.6245 4.17124 23.1166 4.42511 23.459C4.68287 23.8062 5.08612 23.99 5.52176 23.99C5.92841 23.99 6.38479 23.8234 6.8415 23.5089L17.9504 15.8609C18.6645 15.3687 19.0561 14.7063 19.0559 13.9947C19.0559 13.2835 18.6582 12.621 17.9431 12.1292Z" fill="black"/>
<path d="M22.4874 23.995L22.4755 23.9949C22.4736 23.9949 22.4717 23.995 22.4697 23.995H22.4874Z" fill="black"/>
<path d="M22.4546 4L21.995 4.0013C21.3931 4.0013 20.8721 4.49186 20.8721 5.09454V22.8901C20.8721 23.4934 21.3845 23.9887 21.9872 23.9887L22.4754 23.9948C23.0751 23.9916 23.5268 23.4921 23.5268 22.891V5.09341C23.5268 4.49073 23.0569 4 22.4546 4Z" fill="black"/>
</svg>
