<svg width="28" height="28" viewBox="0 0 28 28" fill="none" xmlns="http://www.w3.org/2000/svg">
<path d="M21.6517 4.00964C21.2442 4.00964 20.8054 4.17661 20.3489 4.49125L9.24111 12.1437C8.52609 12.6362 8.13672 13.2988 8.13672 14.0103C8.13656 14.7219 8.53306 15.3851 9.24824 15.8775L20.3656 23.5245C20.8229 23.8393 21.2802 24.0001 21.6869 24.0001H21.6874C22.1234 24.0001 22.4539 23.8216 22.7117 23.4744C22.9657 23.1315 23.0638 22.6446 23.0638 22.0555V5.96588C23.0639 4.75952 22.5457 4.00964 21.6517 4.00964Z" fill="black"/>
<path d="M5.68407 4.00146L5.14865 4C4.54579 4 4 4.49084 4 5.09402V22.9016C4 23.5048 4.5278 23.9998 5.13098 23.9998H5.14946L5.67418 23.9969C6.27719 23.9969 6.81261 23.504 6.81261 22.9008V5.09532C6.81277 4.49214 6.28643 4.00146 5.68407 4.00146Z" fill="black"/>
</svg>
