<svg width="22" height="22" viewBox="0 0 22 22" fill="none" xmlns="http://www.w3.org/2000/svg">
<path d="M15.285 16.5332C11.0177 16.5332 7.55825 13.0738 7.55825 8.80642C7.55825 6.13974 8.90918 3.78853 10.964 2.39991C10.7259 2.38259 10.4854 2.37366 10.2428 2.37366C4.82316 2.37366 0.429688 6.76713 0.429688 12.1868C0.429688 17.6064 4.82316 21.9999 10.2428 21.9999C14.5985 21.9999 18.2913 19.1621 19.5733 15.2345C18.3464 16.0547 16.8716 16.5332 15.285 16.5332Z" fill="black"/>
<path d="M18.8831 4.03936L21.2894 0H16.8867V1.28906H19.0211L16.6147 5.32843H21.5702V4.03936H18.8831Z" fill="black"/>
<path d="M15.2 4.90942H11.2189V6.19849H12.9316L11.0747 9.31557H15.1577V8.02651H13.3431L15.2 4.90942Z" fill="black"/>
<path d="M17.5989 12.2357L18.7743 10.2628H15.4478V11.5519H16.5059L15.3306 13.5248H18.8209V12.2357H17.5989Z" fill="black"/>
</svg>
